# xmcd
#
# Track frame offsets: 
#        150
#        22479
#        40596
#        60846
#        79988
#        97511
#        119084
#        134015
#        150512
#        171113
#        191066
#        207232
#        227050
#        237845
#        257177
#        271865
#        287876
#        308423
#
# Disc length: 4365 seconds
#
# Revision: 0
# Processed by: cddbd v1.5.1PL0 Copyright (c) Steve Scherf et al.
# Submitted via: ExactAudioCopy v0.95a5
#
DISCID=f6110b12
DTITLE=Various Artist - 七里香1
DYEAR=2004
DGENRE=Acid
TTITLE0=七里香
TTITLE1=一生一世
TTITLE2=江南
TTITLE3=不再回头
TTITLE4=第一次爱的人
TTITLE5=我们的爱
TTITLE6=恋爱预报
TTITLE7=爱你
TTITLE8=丢了
TTITLE9=第二天堂
TTITLE10=爱情36计
TTITLE11=你是我老婆
TTITLE12=花好月圆
TTITLE13=幸福
TTITLE14=奔跑
TTITLE15=遇见
TTITLE16=不值得
TTITLE17=斯卡保罗集市
EXTD=
EXTT0=
EXTT1=
EXTT2=
EXTT3=
EXTT4=
EXTT5=
EXTT6=
EXTT7=
EXTT8=
EXTT9=
EXTT10=
EXTT11=
EXTT12=
EXTT13=
EXTT14=
EXTT15=
EXTT16=
EXTT17=
PLAYORDER=
